HIERARCHY
ROOT root
{
	OFFSET	0	13.1	24.9
	CHANNELS 6  Xposition Yposition Zposition Xrotation Yrotation Zrotation
	JOINT spine_1
	{
		OFFSET	0	9.99999	0
		CHANNELS 3  Xrotation Yrotation Zrotation
		JOINT spine_2
		{
			OFFSET	0	112	-10
			CHANNELS 3  Xrotation Yrotation Zrotation
			JOINT spine_3
			{
				OFFSET	0	206.5	19.3
				CHANNELS 3  Xrotation Yrotation Zrotation
				JOINT spine_4
				{
					OFFSET	0	110.4	14.6
					CHANNELS 3  Xrotation Yrotation Zrotation
					JOINT neck_1
					{
						OFFSET	0	71.8	-50.3
						CHANNELS 3  Xrotation Yrotation Zrotation
						JOINT neck_2
						{
							OFFSET	0	86.2	-25.8
							CHANNELS 3  Xrotation Yrotation Zrotation
							JOINT head_ee
							{
								OFFSET	0	179.8	-8.7
								CHANNELS 3  Xrotation Yrotation Zrotation
								End Site
								{
									OFFSET	1	0	0
								}
							}
						}
					}
					JOINT left_clavicle
					{
						OFFSET	-43.2	22.4	-70.8
						CHANNELS 3  Xrotation Yrotation Zrotation
						JOINT left_shoulder
						{
							OFFSET	-93.9	-5.79999	48.7
							CHANNELS 3  Xrotation Yrotation Zrotation
							JOINT left_elbow
							{
								OFFSET	-291.4	-30.8	15.2
								CHANNELS 3  Xrotation Yrotation Zrotation
								JOINT left_lowarm_twist
								{
									OFFSET	-110.7	-3.89999	13.6
									CHANNELS 3  Xrotation Yrotation Zrotation
									JOINT left_hand
									{
										OFFSET	-110.7	-3.89999	13.6
										CHANNELS 3  Xrotation Yrotation Zrotation
										JOINT left_ee
										{
											OFFSET	-80.8	-5.10001	12.1
											CHANNELS 3  Xrotation Yrotation Zrotation
											End Site
											{
												OFFSET	1	0	0
											}
										}
									}
								}
							}
						}
					}
					JOINT right_clavicle
					{
						OFFSET	43.2	22.4	-70.8
						CHANNELS 3  Xrotation Yrotation Zrotation
						JOINT right_shoulder
						{
							OFFSET	93.9	-5.79999	48.7
							CHANNELS 3  Xrotation Yrotation Zrotation
							JOINT right_elbow
							{
								OFFSET	291.4	-30.8	15.2
								CHANNELS 3  Xrotation Yrotation Zrotation
								JOINT right_lowarm_twist
								{
									OFFSET	110.7	-3.89999	13.6
									CHANNELS 3  Xrotation Yrotation Zrotation
									JOINT right_hand
									{
										OFFSET	110.7	-3.89999	13.6
										CHANNELS 3  Xrotation Yrotation Zrotation
										JOINT right_ee
										{
											OFFSET	80.8	-5.10001	12.1
											CHANNELS 3  Xrotation Yrotation Zrotation
											End Site
											{
												OFFSET	1	0	0
											}
										}
									}
								}
							}
						}
					}
				}
			}
		}
	}
	JOINT left_hip
	{
		OFFSET	-82.8	-127.5	0.300001
		CHANNELS 3  Xrotation Yrotation Zrotation
		JOINT left_knee
		{
			OFFSET	-28.2	-396.7	2.2
			CHANNELS 3  Xrotation Yrotation Zrotation
			JOINT left_ankle
			{
				OFFSET	-11.7	-411.3	35.4
				CHANNELS 3  Xrotation Yrotation Zrotation
				JOINT left_toes
				{
					OFFSET	0	-60	-88.6
					CHANNELS 3  Xrotation Yrotation Zrotation
					JOINT left_foot_ee
					{
						OFFSET	-22.5	-16.5	-42.2
						CHANNELS 3  Xrotation Yrotation Zrotation
						End Site
						{
							OFFSET	1	0	0
						}
					}
				}
			}
		}
	}
	JOINT right_hip
	{
		OFFSET	82.8	-127.5	0.300001
		CHANNELS 3  Xrotation Yrotation Zrotation
		JOINT right_knee
		{
			OFFSET	28.2	-396.7	2.2
			CHANNELS 3  Xrotation Yrotation Zrotation
			JOINT right_ankle
			{
				OFFSET	11.7	-411.3	35.4
				CHANNELS 3  Xrotation Yrotation Zrotation
				JOINT right_toes
				{
					OFFSET	0	-60	-88.6
					CHANNELS 3  Xrotation Yrotation Zrotation
					JOINT right_foot_ee
					{
						OFFSET	22.5	-16.5	-42.2
						CHANNELS 3  Xrotation Yrotation Zrotation
						End Site
						{
							OFFSET	1	0	0
						}
					}
				}
			}
		}
	}
}
MOTION
Frames: 6
Frame Time: 0.02
2195.41 761.863 -1605.66 8.26229 63.509 -14.9941 -1.06733 0.950167 4.72523 -1.05515 0.647915 4.77596 -0.990461 -0.453646 4.79826 -1.02244 0.30894 4.80972 -3.59217 19.108 -2.38156 -2.98172 36.7551 0.350665 -0.0 0.0 -0.0 -0.64524 13.2884 0.506196 -23.8429 -11.3183 60.9443 0.931579 -24.7719 0.204586 -48.9743 -3.95207 4.62819 -1.55552 15.4176 -3.31131 -0.0 0.0 -0.0 12.7991 24.1479 -25.4169 -6.52573 25.9788 -66.1461 1.44461 35.586 -0.463639 38.4741 0.272284 4.81615 2.70509 -0.0152673 -18.4013 0.0 0.0 0.0 1.16891 31.654 -5.06185 -21.1702 0.279895 3.21822 8.19401 1.35162 -1.17971 -17.0264 0.0 0.0 -0.0 0.0 -0.0 3.1326 31.6222 -1.69537 -16.8428 -0.319866 -2.55561 13.753 -5.97795 1.92894 -9.69685 0.0 0.0 0.0 0.0 0.0 
2187.98 758.377 -1609.46 9.37778 64.4842 -16.0714 -1.05127 0.875688 4.82284 -1.03851 0.567397 4.86864 -0.979496 -0.552518 4.87035 -1.01251 0.222644 4.89646 -3.07666 19.4234 -1.91165 -2.38903 36.8889 0.705544 -0.0 0.0 -0.0 -1.00959 13.1997 -0.106099 -24.9044 -11.4541 60.9961 0.931034 -24.7591 0.204357 -48.4538 -3.89169 4.5996 -1.36935 14.4048 -2.62257 -0.0 0.0 -0.0 12.818 24.3464 -25.4399 -7.23323 26.9393 -66.3823 1.48814 36.3946 -0.489222 39.2784 0.312265 4.91092 2.76742 1.25122 -18.3322 0.0 0.0 0.0 -0.878646 31.4691 -4.72456 -20.7746 0.285625 3.1578 9.52934 2.26619 -1.36331 -16.3001 0.0 0.0 -0.0 0.0 -0.0 3.21201 31.541 -1.9689 -19.4839 -0.301422 -2.96038 16.4515 -5.97984 2.28223 -9.45833 0.0 0.0 0.0 0.0 0.0 
2175.42 761.624 -1603.99 9.79579 65.217 -16.4965 -1.03636 0.705903 4.84664 -1.02339 0.396445 4.88162 -0.97925 -0.722545 4.84419 -1.01198 0.05062 4.89739 -2.53786 19.1819 -2.62615 -1.73406 36.8942 -0.274038 -0.0 0.0 -0.0 -0.914085 13.1296 0.0416737 -25.242 -12.1497 62.1172 0.896964 -23.9567 0.190305 -48.0742 -3.84783 4.57841 -1.18175 13.8388 -1.70836 -0.0 0.0 -0.0 12.6091 24.3983 -24.9523 -8.26232 27.3705 -66.0314 1.48418 36.3218 -0.486877 39.5664 0.326901 4.94471 2.70308 2.14295 -17.514 0.0 0.0 0.0 -2.31977 31.366 -4.35767 -20.4914 0.289472 3.11451 10.4679 2.90345 -1.49106 -15.792 0.0 0.0 -0.0 0.0 -0.0 3.29331 31.7699 -2.19652 -21.2799 -0.278231 -3.23497 18.3016 -6.03019 2.51857 -9.30638 0.0 0.0 0.0 0.0 0.0 
2167.27 747.543 -1600.13 10.5956 64.9213 -16.5112 -1.14841 0.633032 4.63322 -1.13654 0.337254 4.66402 -1.09937 -0.740501 4.61729 -1.12911 -0.00282162 4.67617 -2.18577 18.3069 -4.593 -1.24026 36.7497 -2.61425 -0.0 0.0 -0.0 -1.16346 13.2115 -0.358183 -26.1667 -12.3216 63.0964 0.892928 -23.861 0.188669 -47.6663 -3.80084 4.55531 -0.78146 12.2776 0.119723 -0.0 0.0 -0.0 12.566 24.9262 -24.7972 -8.69929 27.7823 -65.6027 1.49714 36.5597 -0.494572 39.6982 0.333656 4.96015 2.66076 3.16924 -16.7922 0.0 0.0 0.0 -2.79643 31.4885 -4.20504 -20.0598 0.294924 3.04851 13.4448 4.48712 -1.89005 -15.7219 0.0 0.0 -0.0 0.0 -0.0 2.91769 32.1439 -2.32201 -22.1982 -0.263052 -3.37506 17.7525 -7.14072 2.44832 -8.06719 0.0 0.0 0.0 0.0 0.0 
2165.55 753.424 -1596.67 9.90892 63.6937 -15.5295 -1.16342 0.585709 4.50976 -1.15216 0.297856 4.53781 -1.11941 -0.751528 4.48516 -1.14747 -0.034512 4.54743 -2.07452 17.6362 -6.14186 -1.02209 36.7071 -4.41079 -0.0 0.0 -0.0 -1.02983 13.2709 -0.129412 -25.8306 -12.5463 64.0698 0.883285 -23.6317 0.184786 -47.1989 -3.74722 4.52844 -0.501831 11.6129 1.6058 -0.0 0.0 -0.0 12.4837 25.2875 -24.5685 -9.12261 28.0194 -64.9924 1.50609 36.7231 -0.499911 39.765 0.337096 4.96798 2.64094 4.12391 -16.254 0.0 0.0 0.0 -3.06423 31.5693 -4.14252 -19.741 0.298631 2.99973 15.5364 5.7518 -2.16375 -15.8087 0.0 0.0 -0.0 0.0 -0.0 3.13715 33.0257 -2.72167 -22.9468 -0.249015 -3.48908 15.7486 -8.32775 2.19064 -7.20214 0.0 0.0 0.0 0.0 0.0 
2164.43 763.443 -1591.08 10.0255 61.2188 -14.8559 -1.42402 0.721846 4.42223 -1.41325 0.439272 4.4591 -1.36908 -0.614735 4.43835 -1.39654 0.0932056 4.47967 -2.5938 17.4449 -6.64679 -1.59603 36.8052 -4.78791 -0.0 0.0 -0.0 -0.908395 13.3412 0.0803543 -25.5137 -12.5811 64.8947 0.876767 -23.4762 0.182181 -46.8264 -3.70463 4.50672 -0.321571 11.4286 2.67326 -0.0 0.0 -0.0 12.4997 25.5055 -24.5809 -9.38835 28.2201 -64.8192 1.51097 36.8121 -0.502837 39.8118 0.339507 4.97345 2.62803 4.80433 -15.8763 0.0 0.0 0.0 -2.68744 31.5152 -4.30279 -18.3612 0.311543 2.78841 16.916 6.5843 -2.34156 -16.1657 0.0 0.0 -0.0 0.0 -0.0 3.3243 33.5655 -3.39052 -22.8362 -0.251182 -3.47225 14.3261 -9.15341 2.00475 -6.79969 0.0 0.0 0.0 0.0 0.0 
